<svg width="630" height="408" viewBox="0 0 630 408" fill="none" xmlns="http://www.w3.org/2000/svg">
<g clip-path="url(#clip0_8_83)">
<path d="M475.853 324.907C474.128 313.28 473.673 301.499 474.494 289.774L475.853 270.367C468.365 285.278 470.057 304.904 475.853 324.907V324.907Z" fill="#EEC374"/>
<path d="M481.692 328.154C480.861 321.216 480.642 314.218 481.038 307.241L481.692 295.689C478.089 304.565 478.903 316.247 481.692 328.154Z" fill="#EEC374"/>
<path d="M507.647 342.439V348.932C507.644 349.448 507.438 349.942 507.074 350.306C506.709 350.671 506.216 350.877 505.7 350.88H502.456C502.371 350.88 502.287 350.896 502.208 350.929C502.129 350.961 502.057 351.009 501.997 351.069C501.937 351.13 501.889 351.201 501.856 351.28C501.824 351.359 501.807 351.444 501.808 351.529V404.771C501.805 405.286 501.599 405.78 501.235 406.145C500.87 406.51 500.377 406.716 499.861 406.718H460.286C459.77 406.718 459.275 406.513 458.91 406.148C458.545 405.782 458.34 405.287 458.339 404.771V351.529C458.339 351.357 458.27 351.192 458.149 351.071C458.027 350.949 457.863 350.88 457.691 350.88H453.798C453.282 350.879 452.787 350.674 452.422 350.309C452.057 349.944 451.852 349.448 451.852 348.932V342.439C451.851 342.183 451.901 341.93 451.999 341.693C452.097 341.457 452.24 341.242 452.421 341.061C452.602 340.88 452.816 340.737 453.053 340.639C453.289 340.541 453.542 340.491 453.798 340.491H505.7C506.216 340.493 506.71 340.698 507.075 341.063C507.44 341.428 507.645 341.923 507.647 342.439Z" fill="#F4DFBA"/>
<path d="M501.867 352.243H458.398V354.191H501.867V352.243Z" fill="#876546"/>
<path d="M501.809 380.906C487.263 386.93 472.559 386.997 457.691 380.906V367.183C472.004 362.372 487.496 362.372 501.809 367.183V380.906Z" fill="#EEC374"/>
<path d="M292.914 162.569C305.955 162.569 316.527 151.989 316.527 138.938C316.527 125.887 305.955 115.307 292.914 115.307C279.873 115.307 269.301 125.887 269.301 138.938C269.301 151.989 279.873 162.569 292.914 162.569Z" fill="#2F2E41"/>
<path d="M299.49 115.957C303.576 115.958 307.593 117.02 311.146 119.039C314.7 121.058 317.67 123.965 319.764 127.477C321.859 130.989 323.007 134.984 323.097 139.073C323.187 143.161 322.215 147.204 320.276 150.804C322.324 148.24 323.815 145.278 324.655 142.106C325.495 138.934 325.665 135.622 325.156 132.38C324.646 129.139 323.467 126.039 321.694 123.279C319.921 120.518 317.593 118.158 314.858 116.348C312.123 114.537 309.041 113.317 305.809 112.765C302.577 112.212 299.265 112.34 296.085 113.139C292.905 113.939 289.926 115.392 287.338 117.407C284.75 119.422 282.61 121.955 281.055 124.844C283.262 122.07 286.066 119.831 289.258 118.292C292.45 116.754 295.947 115.956 299.49 115.957Z" fill="#2F2E41"/>
<path d="M248.789 138.889C287.097 138.889 318.151 107.809 318.151 69.4716C318.151 31.1337 287.097 0.0546875 248.789 0.0546875C210.481 0.0546875 179.426 31.1337 179.426 69.4716C179.426 107.809 210.481 138.889 248.789 138.889Z" fill="#2F2E41"/>
<path d="M194.351 26.4012C206.303 12.9493 223.01 4.67078 240.945 3.31279C258.88 1.95479 276.641 7.6236 290.479 19.1228C289.912 18.5832 289.351 18.0392 288.761 17.5149C275.011 5.2922 256.974 -0.965167 238.615 0.118604C220.255 1.20238 203.078 9.53855 190.859 23.2942C178.64 37.0499 172.38 55.0989 173.455 73.4728C174.53 91.8467 182.852 109.041 196.592 121.276C197.181 121.8 197.787 122.294 198.388 122.795C185.356 110.388 177.651 93.3995 176.897 75.4147C176.144 57.4299 182.402 39.8557 194.351 26.4012Z" fill="#2F2E41"/>
<path d="M248.202 138.299C272.875 138.299 292.876 118.282 292.876 93.59C292.876 68.8978 272.875 48.8809 248.202 48.8809C223.529 48.8809 203.527 68.8978 203.527 93.59C203.527 118.282 223.529 138.299 248.202 138.299Z" fill="#FFB8B8"/>
<path d="M271.024 150.438L223.216 152.588C223.216 152.588 227.206 177.332 201.342 179.685C175.478 182.038 151.965 174.978 142.56 192.627C133.155 210.275 137.209 273.116 137.209 273.116C137.209 273.116 154.843 336.65 168.951 346.063C183.059 355.475 306.501 342.533 306.501 342.533L358.162 277.251L356.413 226.906C355.499 200.616 331.514 180.877 305.682 185.742C305.175 185.838 304.664 185.941 304.15 186.051C304.15 186.051 298.475 181.806 282.904 174.015C273.382 169.25 271.024 150.438 271.024 150.438Z" fill="#CACACA"/>
<path d="M167.246 178.507C167.246 178.507 178.609 199.14 173.906 228.554C169.204 257.967 188.935 320.177 188.935 320.177L203.042 316.648C203.042 316.648 193.637 255.467 195.988 241.348C198.34 227.229 198.988 185.566 187.232 178.507C175.476 171.447 167.246 178.507 167.246 178.507Z" fill="#2F2E41"/>
<path d="M303.321 189.327L308.263 319.59L317.668 325.473C317.668 325.473 331.188 182.521 324.134 182.521H309.781C308.932 182.521 308.09 182.689 307.306 183.014C306.521 183.34 305.808 183.816 305.207 184.418C304.606 185.019 304.13 185.732 303.805 186.518C303.48 187.303 303.312 188.145 303.313 188.995C303.313 189.106 303.315 189.216 303.321 189.327Z" fill="#2F2E41"/>
<path d="M195.402 317.236C198.648 317.236 201.28 314.602 201.28 311.353C201.28 308.105 198.648 305.471 195.402 305.471C192.155 305.471 189.523 308.105 189.523 311.353C189.523 314.602 192.155 317.236 195.402 317.236Z" fill="#6C63FF"/>
<path d="M312.964 323.119C316.211 323.119 318.842 320.485 318.842 317.236C318.842 313.987 316.211 311.354 312.964 311.354C309.718 311.354 307.086 313.987 307.086 317.236C307.086 320.485 309.718 323.119 312.964 323.119Z" fill="#6C63FF"/>
<path d="M209.992 37.7031V82.4124H220.338L233.505 68.2936L231.742 82.4124H277.474L274.652 68.2936L280.295 82.4124H287.584V37.7031H209.992Z" fill="#2F2E41"/>
<path d="M202.937 90.6492C204.885 90.6492 206.464 87.752 206.464 84.1781C206.464 80.6042 204.885 77.707 202.937 77.707C200.989 77.707 199.41 80.6042 199.41 84.1781C199.41 87.752 200.989 90.6492 202.937 90.6492Z" fill="#FFB8B8"/>
<path d="M293.464 90.6492C295.412 90.6492 296.991 87.752 296.991 84.1781C296.991 80.6042 295.412 77.707 293.464 77.707C291.517 77.707 289.938 80.6042 289.938 84.1781C289.938 87.752 291.517 90.6492 293.464 90.6492Z" fill="#FFB8B8"/>
<path d="M391.315 395.056V398.997C391.317 400.079 391.117 401.151 390.725 402.159C390.551 402.608 390.34 403.042 390.095 403.458C389.322 404.756 388.225 405.832 386.911 406.579C385.598 407.325 384.113 407.718 382.602 407.717H92.8889C91.3782 407.718 89.8932 407.325 88.5796 406.579C87.2659 405.832 86.1687 404.756 85.3955 403.458C85.1509 403.042 84.9404 402.608 84.7662 402.159C84.3739 401.151 84.1736 400.079 84.1758 398.997V395.056C84.1755 393.911 84.4005 392.777 84.838 391.72C85.2754 390.662 85.9168 389.701 86.7255 388.891C87.5341 388.081 88.4942 387.439 89.551 387C90.6077 386.562 91.7404 386.336 92.8843 386.336H109.589V384.498C109.588 384.451 109.598 384.403 109.616 384.359C109.634 384.315 109.661 384.275 109.694 384.241C109.728 384.208 109.768 384.181 109.812 384.163C109.856 384.144 109.903 384.135 109.951 384.135H118.665C118.761 384.135 118.854 384.173 118.922 384.241C118.99 384.309 119.028 384.401 119.028 384.497V386.336H124.472V384.498C124.471 384.451 124.481 384.403 124.499 384.359C124.517 384.315 124.544 384.275 124.577 384.242C124.611 384.208 124.651 384.181 124.695 384.163C124.739 384.144 124.786 384.135 124.834 384.135H133.548C133.644 384.135 133.737 384.173 133.805 384.241C133.873 384.309 133.911 384.401 133.911 384.497V386.336H139.361V384.498C139.361 384.451 139.37 384.403 139.388 384.359C139.407 384.315 139.433 384.275 139.467 384.242C139.501 384.208 139.54 384.181 139.584 384.163C139.628 384.144 139.676 384.135 139.723 384.135H148.438C148.534 384.135 148.626 384.173 148.694 384.241C148.762 384.309 148.801 384.401 148.801 384.497V386.336H154.244V384.498C154.244 384.451 154.253 384.403 154.271 384.359C154.29 384.315 154.316 384.275 154.35 384.242C154.384 384.208 154.424 384.181 154.467 384.163C154.511 384.144 154.559 384.135 154.606 384.135H163.321C163.417 384.135 163.509 384.173 163.577 384.241C163.645 384.309 163.684 384.401 163.684 384.497V386.336H169.127V384.498C169.127 384.451 169.136 384.404 169.155 384.359C169.173 384.315 169.199 384.275 169.233 384.242C169.267 384.208 169.307 384.181 169.351 384.163C169.394 384.144 169.442 384.135 169.489 384.135H178.204C178.3 384.135 178.392 384.173 178.46 384.241C178.528 384.309 178.567 384.401 178.567 384.497V386.336H184.017V384.498C184.017 384.451 184.026 384.404 184.044 384.359C184.062 384.315 184.089 384.275 184.122 384.242C184.156 384.208 184.196 384.181 184.24 384.163C184.284 384.144 184.331 384.135 184.379 384.135H193.093C193.189 384.135 193.282 384.173 193.35 384.241C193.418 384.309 193.456 384.401 193.456 384.497V386.336H198.9V384.498C198.9 384.451 198.909 384.404 198.927 384.359C198.945 384.315 198.972 384.275 199.006 384.242C199.039 384.208 199.079 384.181 199.123 384.163C199.167 384.144 199.214 384.135 199.262 384.135H267.515C267.562 384.135 267.61 384.144 267.654 384.162C267.698 384.18 267.738 384.207 267.771 384.241C267.805 384.274 267.832 384.314 267.85 384.358C267.869 384.402 267.878 384.45 267.878 384.497V386.336H273.328V384.498C273.328 384.451 273.337 384.404 273.355 384.36C273.373 384.315 273.4 384.275 273.434 384.242C273.467 384.208 273.507 384.181 273.551 384.163C273.595 384.144 273.642 384.135 273.69 384.135H282.404C282.5 384.136 282.592 384.174 282.66 384.242C282.728 384.31 282.767 384.402 282.768 384.498V386.336H288.211V384.498C288.211 384.451 288.22 384.404 288.238 384.36C288.256 384.315 288.283 384.275 288.317 384.242C288.35 384.208 288.39 384.181 288.434 384.163C288.478 384.144 288.525 384.135 288.573 384.135H297.287C297.335 384.135 297.382 384.144 297.426 384.162C297.47 384.18 297.51 384.207 297.544 384.241C297.578 384.274 297.605 384.314 297.623 384.358C297.641 384.402 297.651 384.45 297.651 384.497V386.336H303.094V384.498C303.094 384.451 303.103 384.404 303.121 384.36C303.139 384.315 303.166 384.275 303.2 384.242C303.233 384.208 303.273 384.181 303.317 384.163C303.361 384.144 303.408 384.135 303.456 384.135H312.17C312.218 384.135 312.265 384.144 312.309 384.162C312.353 384.18 312.393 384.207 312.427 384.241C312.461 384.274 312.488 384.314 312.506 384.358C312.524 384.402 312.534 384.45 312.534 384.497V386.336H317.983V384.498C317.983 384.451 317.993 384.404 318.011 384.36C318.029 384.315 318.056 384.275 318.089 384.242C318.123 384.208 318.163 384.181 318.207 384.163C318.251 384.144 318.298 384.135 318.346 384.135H327.06C327.155 384.136 327.246 384.175 327.313 384.243C327.38 384.311 327.417 384.403 327.417 384.498V386.336H332.867V384.498C332.866 384.451 332.876 384.404 332.894 384.36C332.912 384.315 332.939 384.275 332.972 384.242C333.006 384.208 333.046 384.181 333.09 384.163C333.134 384.144 333.181 384.135 333.229 384.135H341.943C341.991 384.135 342.038 384.144 342.082 384.162C342.126 384.18 342.166 384.207 342.2 384.241C342.233 384.274 342.26 384.314 342.278 384.358C342.297 384.402 342.306 384.45 342.306 384.497V386.336H347.75V384.498C347.749 384.451 347.759 384.404 347.777 384.36C347.795 384.315 347.822 384.275 347.855 384.242C347.889 384.208 347.929 384.181 347.973 384.163C348.017 384.144 348.064 384.135 348.112 384.135H356.826C356.874 384.135 356.921 384.144 356.965 384.162C357.009 384.18 357.049 384.207 357.083 384.241C357.116 384.274 357.143 384.314 357.161 384.358C357.18 384.402 357.189 384.45 357.189 384.497V386.336H382.602C384.912 386.335 387.128 387.253 388.762 388.888C390.396 390.522 391.315 392.739 391.315 395.051L391.315 395.056Z" fill="#3F3D56"/>
<path d="M630 406.701H0V408H630V406.701Z" fill="#3F3D56"/>
<path d="M367.985 229.076H102.605C101.646 229.076 100.696 229.265 99.8099 229.633C98.9237 230 98.1185 230.538 97.4402 231.217C96.7619 231.896 96.2239 232.702 95.8568 233.589C95.4897 234.476 95.3008 235.426 95.3008 236.386V384.366C95.3008 386.305 96.0703 388.164 97.4402 389.535C98.81 390.906 100.668 391.676 102.605 391.676H367.985C369.922 391.676 371.78 390.906 373.15 389.535C374.52 388.164 375.289 386.305 375.289 384.366V236.386C375.289 234.447 374.52 232.588 373.15 231.217C371.78 229.846 369.922 229.076 367.985 229.076Z" fill="#3F3D56"/>
<path d="M235.509 296.972C244.466 296.972 251.728 289.705 251.728 280.74C251.728 271.775 244.466 264.508 235.509 264.508C226.551 264.508 219.289 271.775 219.289 280.74C219.289 289.705 226.551 296.972 235.509 296.972Z" fill="#EEC374"/>
<path d="M335.915 173.501L417.795 90.9099H456.451V89.6113H417.253L417.063 89.8042L334.992 172.588L335.915 173.501Z" fill="#3F3D56"/>
<path d="M598.535 57.002H503.668V65.4621H598.535V57.002Z" fill="#EEC374"/>
<path d="M492.107 70.8119H472.023V50.7129H492.107V70.8119ZM473.321 69.5134H490.809V52.0115H473.321L473.321 69.5134Z" fill="#3F3D56"/>
<path d="M598.535 85.2031H503.668V93.6632H598.535V85.2031Z" fill="#EEC374"/>
<path d="M492.107 99.0128H472.023V78.9141H492.107V99.0128ZM473.321 97.7142H490.809V80.2126H473.321L473.321 97.7142Z" fill="#3F3D56"/>
<path d="M598.535 113.402H503.668V121.862H598.535V113.402Z" fill="#EEC374"/>
<path d="M492.107 127.212H472.023V107.113H492.107V127.212ZM473.321 125.913H490.809V108.412H473.321L473.321 125.913Z" fill="#3F3D56"/>
</g>
<defs>
<clipPath id="clip0_8_83">
<rect width="630" height="408" fill="white"/>
</clipPath>
</defs>
</svg>
