<svg width="633" height="437" viewBox="0 0 633 437" fill="none" xmlns="http://www.w3.org/2000/svg">
<g clip-path="url(#clip0_8_113)">
<path d="M62.5243 404.947C62.7975 415.139 64.506 425.241 67.5993 434.957C67.6678 435.182 67.744 435.404 67.818 435.63H86.7552C86.7353 435.427 86.7148 435.202 86.6949 434.957C85.4323 420.45 92.6456 333.21 101.35 318.111C100.587 319.336 61.056 358.853 62.5243 404.947Z" fill="#E6E6E6"/>
<path d="M63.9443 434.957C64.1027 435.182 64.2673 435.408 64.436 435.63H78.6432C78.5355 435.438 78.4107 435.212 78.266 434.957C75.9191 430.724 68.9726 418.068 62.5246 404.947C55.598 390.848 49.2378 376.214 49.7734 370.917C49.6075 372.111 44.8123 408.528 63.9443 434.957Z" fill="#E6E6E6"/>
<path d="M294.223 420.041C294.362 425.219 295.23 430.351 296.802 435.287C296.837 435.402 296.875 435.515 296.913 435.629H306.534C306.524 435.527 306.514 435.412 306.504 435.287C305.862 427.917 309.527 383.594 313.949 375.923C313.562 376.545 293.477 396.622 294.223 420.041Z" fill="#E6E6E6"/>
<path d="M294.945 435.287C295.026 435.402 295.109 435.516 295.195 435.629H302.413C302.358 435.531 302.295 435.417 302.221 435.287C301.029 433.136 297.5 426.706 294.224 420.04C290.705 412.877 287.473 405.442 287.746 402.751C287.661 403.358 285.225 421.86 294.945 435.287Z" fill="#E6E6E6"/>
<path d="M237.264 124.846L212.773 142.254L228.012 143.886L249.238 125.935L237.264 124.846Z" fill="#3F3D56"/>
<path d="M141.448 422.087L156.178 422.086L163.185 365.307L141.445 365.307L141.448 422.087Z" fill="#9F616A"/>
<path d="M137.691 417.28L166.7 417.279H166.701C171.604 417.28 176.306 419.226 179.772 422.691C183.239 426.155 185.187 430.854 185.187 435.754V436.354L137.692 436.356L137.691 417.28Z" fill="#2F2E41"/>
<path d="M132.188 219.283C132.188 219.283 125.804 226.495 136.375 254.607L134.513 408.75L168.769 408.082L176.299 332.892L190.008 223.169L132.188 219.283Z" fill="#2F2E41"/>
<path d="M97.9887 194.95C95.9648 194.945 94.0227 194.151 92.5746 192.738C91.1265 191.325 90.2864 189.404 90.2325 187.382L88.625 126.837L116.132 74.685C116.756 73.5106 117.67 72.5148 118.787 71.7916C119.904 71.0684 121.187 70.6418 122.515 70.552L143.477 69.207L141.667 191.249L98.6705 194.921C98.4423 194.941 98.215 194.951 97.9887 194.95Z" fill="#EEC374"/>
<path d="M201.757 240.595L201.382 240.538C157.559 233.858 124.49 227.455 124.161 227.391L123.75 227.311L135.238 199.387C135.147 196.47 132.66 114.532 137.421 90.9906C142.029 68.2011 163.751 64.4664 166.227 64.115L168.712 55.8848L200.114 72.2144L205.59 91.0512L206.703 142.678L201.757 240.595Z" fill="#3F3D56"/>
<path d="M158.605 162.435C138.373 162.435 121.914 140.452 121.914 113.43C121.914 86.4091 138.373 64.4258 158.605 64.4258C178.836 64.4258 195.295 86.4091 195.295 113.43C195.295 140.452 178.836 162.435 158.605 162.435ZM158.605 69.2234C141.021 69.2234 126.715 89.0545 126.715 113.43C126.715 137.806 141.021 157.637 158.605 157.637C176.189 157.637 190.495 137.806 190.495 113.43C190.495 89.0545 176.189 69.2234 158.605 69.2234Z" fill="#EEC374"/>
<path d="M220.669 134.334C219.255 134.334 217.856 134.626 216.561 135.192C215.265 135.758 214.101 136.586 213.141 137.624H160.361L141.027 141.737L144.202 166.204L212.975 151.423C214.114 152.708 215.556 153.687 217.171 154.272C218.786 154.857 220.522 155.028 222.22 154.77C223.918 154.511 225.524 153.832 226.892 152.794C228.26 151.756 229.346 150.392 230.051 148.827C230.755 147.261 231.057 145.545 230.927 143.833C230.797 142.121 230.24 140.47 229.307 139.028C228.374 137.587 227.095 136.403 225.586 135.583C224.077 134.762 222.387 134.333 220.669 134.334Z" fill="#9F616A"/>
<path d="M216.797 52.417C226.73 42.4894 226.73 26.3934 216.797 16.4658C206.863 6.53813 190.757 6.53814 180.823 16.4658C170.889 26.3935 170.889 42.4894 180.823 52.417C190.757 62.3447 206.863 62.3447 216.797 52.417Z" fill="#9F616A"/>
<path d="M174.886 14.1187L173.653 11.6382L179.858 8.5572C179.858 8.5572 186.703 -2.57371 199.09 0.554321C211.476 3.68235 217.049 5.55441 217.049 5.55441L223.239 8.66676L220.132 11.7556L225.705 13.6277L221.982 15.4763L226.314 17.9646L223.982 30.7205C223.982 30.7205 220.109 21.0457 212.663 24.7429C205.217 28.4401 191.597 22.8317 191.597 22.8317L179.764 45.7174C179.764 45.7174 177.323 37.6948 172.971 39.834C172.97 39.8341 161.851 22.1372 174.886 14.1187Z" fill="#2F2E41"/>
<path d="M395.91 170.623L394.823 150.244L383.85 141.334L377.493 160.205L341.939 207.594C340.258 207.863 338.689 208.608 337.418 209.74C336.148 210.872 335.228 212.345 334.769 213.983C334.309 215.621 334.328 217.356 334.825 218.984C335.321 220.611 336.273 222.062 337.569 223.166C338.865 224.269 340.45 224.979 342.136 225.21C343.823 225.441 345.54 225.185 347.086 224.472C348.631 223.758 349.94 222.617 350.857 221.184C351.773 219.75 352.26 218.084 352.259 216.383C352.259 216.263 352.246 216.146 352.241 216.028L395.91 170.623Z" fill="#FFB7B7"/>
<path d="M417.04 427.462L408.633 427.461L404.633 395.051L417.042 395.051L417.04 427.462Z" fill="#FFB7B7"/>
<path d="M419.185 435.606L392.074 435.605V435.262C392.074 432.465 393.186 429.783 395.165 427.806C397.144 425.828 399.828 424.717 402.626 424.717H402.627L419.185 424.717L419.185 435.606Z" fill="#2F2E41"/>
<path d="M456.134 427.462L447.727 427.461L443.727 395.051L456.136 395.051L456.134 427.462Z" fill="#FFB7B7"/>
<path d="M458.278 435.606L431.168 435.605V435.262C431.168 432.465 432.28 429.783 434.259 427.806C436.238 425.828 438.922 424.717 441.72 424.717H441.721L458.279 424.717L458.278 435.606Z" fill="#2F2E41"/>
<path d="M447.246 85.491C450.805 70.8025 453.821 54.2354 447.108 40.707C442.45 31.3204 425.218 28.1594 415.34 31.541C405.462 34.9227 398.32 44.0973 395.18 54.1005C392.039 64.1037 392.404 74.883 393.772 85.282C411.939 84.9332 430.106 84.5845 447.246 85.491Z" fill="#2F2E41"/>
<path d="M426.751 82.8931C437.017 77.2846 440.79 64.421 435.178 54.1613C429.566 43.9017 416.694 40.1311 406.428 45.7395C396.162 51.348 392.389 64.2116 398.001 74.4713C403.613 84.731 416.485 88.5015 426.751 82.8931Z" fill="#FFB8B8"/>
<path d="M442.486 59.9554C442.553 56.3921 441.903 52.8517 440.574 49.5445C439.245 46.2373 437.265 43.2308 434.751 40.7036C432.236 38.1764 429.239 36.1801 425.937 34.8333C422.636 33.4865 419.097 32.8167 415.531 32.8636C411.965 32.9106 408.445 33.6734 405.18 35.1068C401.916 36.5401 398.972 38.6146 396.525 41.2072C394.078 43.7998 392.178 46.8574 390.937 50.1985C389.696 53.5396 389.139 57.0958 389.301 60.656C407.433 60.6945 425.565 60.733 442.486 59.9554Z" fill="#2F2E41"/>
<path d="M382.57 191.868C382.57 191.868 379.123 241.908 380.994 257.173C382.865 272.437 403.234 405.888 403.234 405.888L418.6 405.861L423.161 248.597L441.331 407.389L457.221 405.738L466.235 250.411C466.235 250.411 464.821 192.259 453.333 186.428L382.57 191.868Z" fill="#2F2E41"/>
<path d="M406.673 241.471C395.387 241.467 384.265 238.776 374.227 233.619L374.008 233.507L382.501 177.188L381.949 110.067C381.934 108.224 382.287 106.398 382.986 104.693C383.684 102.988 384.716 101.439 386.02 100.137C387.325 98.8351 388.875 97.8056 390.582 97.1088C392.289 96.412 394.117 96.0618 395.96 96.0787L441.533 96.4967C443.55 96.5152 445.543 96.9484 447.386 97.7695C449.229 98.5906 450.883 99.7818 452.245 101.269C453.608 102.757 454.65 104.508 455.306 106.415C455.962 108.322 456.218 110.344 456.059 112.354L451.794 166.163L465.897 209.838L463.446 213.095C456.837 221.905 448.266 229.056 438.412 233.982C428.558 238.907 417.691 241.471 406.673 241.471V241.471Z" fill="#3F3D56"/>
<path d="M377.367 153.986L382.143 105.288L383.677 103.106C384.729 101.611 386.065 100.338 387.61 99.3608C389.155 98.3835 390.878 97.7207 392.679 97.4104C394.481 97.1002 396.327 97.1487 398.11 97.553C399.893 97.9574 401.578 98.7097 403.069 99.7667L404.385 100.699L403.086 150.05L377.367 153.986Z" fill="#3F3D56"/>
<path d="M573.045 391.903C585.39 388.495 590.658 407.23 578.344 410.747C565.999 414.155 560.731 395.419 573.045 391.903Z" fill="#3F3D56"/>
<path d="M504.6 416.017C516.945 412.609 522.213 431.344 509.899 434.861C497.554 438.269 492.286 419.534 504.6 416.017Z" fill="#3F3D56"/>
<path d="M476.896 218.417L477.087 218.363L508.886 304.64L513.078 303.462L481.052 216.566C480.982 215.227 480.457 213.952 479.562 212.952C478.668 211.953 477.458 211.289 476.134 211.071C460.231 208.558 453.785 222.666 453.785 222.666L453.849 222.76L486.359 310.967L490.552 309.79L458.998 224.177C468.604 214.682 476.896 218.417 476.896 218.417Z" fill="#3F3D56"/>
<path d="M513.34 420.87C508.803 420.831 504.397 419.345 500.764 416.628C497.131 413.912 494.46 410.108 493.142 405.769C487.073 385.917 472.753 338.351 470.856 325.443C468.386 308.636 482.306 303.856 482.616 303.754C482.991 303.628 488.587 302.063 496.333 299.896C509.5 296.213 529.398 290.648 530.129 290.319C533.212 289.248 536.484 288.825 539.738 289.076C542.992 289.327 546.16 290.248 549.042 291.779C552.012 293.341 554.634 295.49 556.747 298.095C558.86 300.701 560.421 303.709 561.335 306.936L581.817 379.759C583.081 384.224 582.727 388.991 580.817 393.219C578.907 397.448 575.563 400.867 571.377 402.872C555.573 410.46 532.395 420.582 513.651 420.868C513.548 420.869 513.443 420.87 513.34 420.87Z" fill="#EEC374"/>
<path d="M473.513 215.432L463.216 155.326L462.067 135.041L445.422 140.49L459.461 219.195C458.894 220.727 458.76 222.384 459.072 223.987C459.385 225.59 460.133 227.076 461.233 228.283C462.334 229.49 463.746 230.371 465.314 230.83C466.882 231.289 468.547 231.308 470.125 230.886C471.704 230.463 473.135 229.615 474.264 228.434C475.392 227.253 476.174 225.784 476.524 224.189C476.874 222.594 476.778 220.933 476.247 219.389C475.715 217.844 474.77 216.476 473.513 215.432V215.432Z" fill="#FFB7B7"/>
<path d="M466.034 151.557L440.053 150.145L433.949 101.155L434.543 100.64C436.006 99.3716 437.705 98.4047 439.543 97.7945C441.381 97.1843 443.322 96.9429 445.253 97.0841C447.185 97.2253 449.069 97.7463 450.799 98.6173C452.528 99.4883 454.068 100.692 455.331 102.159L456.533 103.556L456.55 103.645L466.034 151.557Z" fill="#3F3D56"/>
<path d="M571.831 390.859L545.276 301.039L482.834 318.674L482.461 317.356L546.207 299.352L546.399 300.001L573.146 390.471L571.831 390.859Z" fill="#876546"/>
<path d="M99.9682 188.511L97.1406 126.895L126.104 70.3145L127.324 70.9388L98.528 127.195L101.338 188.448L99.9682 188.511Z" fill="#876546"/>
<path d="M632.314 437H0.685807C0.50392 437 0.329482 436.927 0.200868 436.799C0.072254 436.67 0 436.496 0 436.314C0 436.133 0.072254 435.958 0.200868 435.83C0.329482 435.701 0.50392 435.629 0.685807 435.629H632.314C632.496 435.629 632.671 435.701 632.799 435.83C632.928 435.958 633 436.133 633 436.314C633 436.496 632.928 436.67 632.799 436.799C632.671 436.927 632.496 437 632.314 437Z" fill="#CCCCCC"/>
<path d="M144.543 170.791L138.507 152.848L137.047 93.0359L139.619 84.5497C140.544 81.4953 142.077 78.6591 144.126 76.2111C146.175 73.7631 148.697 71.7537 151.542 70.3032C154.386 68.8527 157.494 67.9911 160.68 67.7699C163.866 67.5487 167.063 67.9725 170.081 69.016C173.099 70.0594 175.875 71.701 178.243 73.8424C180.611 75.9837 182.522 78.5808 183.861 81.4779C185.201 84.375 185.941 87.5125 186.038 90.7024C186.135 93.8923 185.587 97.0689 184.426 100.042L170.641 135.343L171.342 136.702L201.206 136.46L211.814 155.543L144.543 170.791Z" fill="#3F3D56"/>
<path d="M334.789 298.476L334.768 298.48L301.667 305.103L273.193 316.562C272.825 316.711 272.431 316.785 272.035 316.781C271.638 316.777 271.246 316.695 270.881 316.54C270.515 316.384 270.184 316.159 269.907 315.875C269.629 315.592 269.41 315.257 269.261 314.889C269.226 314.803 269.196 314.715 269.169 314.625L248.368 245.017C248.149 244.296 248.209 243.519 248.536 242.84C248.864 242.161 249.434 241.63 250.134 241.351L279.129 229.682L279.15 229.678L312.251 223.055L340.724 211.596C341.468 211.296 342.3 211.305 343.037 211.618C343.775 211.932 344.357 212.526 344.657 213.269C344.691 213.355 344.722 213.443 344.749 213.533L365.55 283.141C365.769 283.862 365.709 284.639 365.381 285.318C365.054 285.997 364.484 286.528 363.783 286.807L334.789 298.476Z" fill="#E5E5E5"/>
<path d="M299.267 251.72C291.677 249.043 283.832 246.698 275.951 244.75L275.556 244.652L279.557 258.041L299.941 251.957L299.267 251.72ZM279.869 257.463L276.234 245.299C283.735 247.165 291.199 249.391 298.438 251.921L279.869 257.463ZM339.042 269.819C335.508 267.822 331.924 265.91 328.289 264.083C327.287 263.578 326.282 263.081 325.273 262.591C319.118 259.599 312.869 256.871 306.526 254.407L306.452 254.378L280.754 262.048L287.772 285.532L339.518 270.088L339.042 269.819ZM288.084 284.954L281.332 262.36L306.432 254.869C312.549 257.246 318.596 259.879 324.573 262.769C325.611 263.27 326.645 263.779 327.675 264.295C331.275 266.096 334.829 267.983 338.337 269.956L288.084 284.954ZM339.042 269.819C335.508 267.822 331.924 265.91 328.289 264.083C327.287 263.578 326.282 263.081 325.273 262.591C319.118 259.599 312.869 256.871 306.526 254.407L306.452 254.378L280.754 262.048L287.772 285.532L339.518 270.088L339.042 269.819ZM288.084 284.954L281.332 262.36L306.432 254.869C312.549 257.246 318.596 259.879 324.573 262.769C325.611 263.27 326.645 263.779 327.675 264.295C331.275 266.096 334.829 267.983 338.337 269.956L288.084 284.954ZM299.267 251.72C291.677 249.043 283.832 246.698 275.951 244.75L275.556 244.652L279.557 258.041L299.941 251.957L299.267 251.72ZM279.869 257.463L276.234 245.299C283.735 247.165 291.199 249.391 298.438 251.921L279.869 257.463ZM299.267 251.72C291.677 249.043 283.832 246.698 275.951 244.75L275.556 244.652L279.557 258.041L299.941 251.957L299.267 251.72ZM279.869 257.463L276.234 245.299C283.735 247.165 291.199 249.391 298.438 251.921L279.869 257.463ZM339.042 269.819C335.508 267.822 331.924 265.91 328.289 264.083C327.287 263.578 326.282 263.081 325.273 262.591C319.118 259.599 312.869 256.871 306.526 254.407L306.452 254.378L280.754 262.048L287.772 285.532L339.518 270.088L339.042 269.819ZM288.084 284.954L281.332 262.36L306.432 254.869C312.549 257.246 318.596 259.879 324.573 262.769C325.611 263.27 326.645 263.779 327.675 264.295C331.275 266.096 334.829 267.983 338.337 269.956L288.084 284.954ZM266.92 296.119L267.053 296.564L284.647 291.313L286.576 297.769L268.983 303.02L269.116 303.465L287.155 298.081L284.96 290.735L266.92 296.119ZM292.361 300.891L293.709 305.402L294.143 305.228L292.94 301.203L361.542 280.728L361.409 280.283L292.361 300.891ZM358.15 269.376L358.017 268.931L288.969 289.539L291.164 296.884L360.212 276.276L360.079 275.831L291.477 296.306L289.547 289.851L358.15 269.376ZM306.87 249.405C296.355 245.367 285.554 242.117 274.556 239.683L273.209 235.176L272.776 235.35L274.133 239.892L274.589 240.167C285.544 242.598 296.303 245.84 306.778 249.866L306.852 249.895L348.605 237.433L348.471 236.988L306.87 249.405ZM274.969 258.926L257.375 264.177L257.508 264.622L275.547 259.238L268.878 236.918L268.444 237.092L274.969 258.926ZM349.802 241.44L313.096 252.395L313.694 252.646C319.324 255.013 324.939 257.631 330.539 260.497C331.335 260.905 332.131 261.317 332.925 261.736C336.879 263.811 340.801 266.001 344.694 268.307L345.126 268.414L356.82 264.924L356.687 264.479L345.021 267.961C341.17 265.677 337.283 263.503 333.361 261.44C332.576 261.026 331.791 260.618 331.004 260.214C325.522 257.4 320.011 254.819 314.47 252.47L349.935 241.885L349.802 241.44ZM270.313 307.472L270.446 307.917L288.04 302.666L289.378 307.144L289.811 306.97L288.352 302.088L270.313 307.472ZM258.705 268.629L258.838 269.074L276.432 263.823L283.184 286.416L265.59 291.667L265.723 292.113L283.762 286.729L276.745 263.245L258.705 268.629ZM299.267 251.72C291.677 249.043 283.832 246.698 275.951 244.75L275.556 244.652L279.557 258.041L299.941 251.957L299.267 251.72ZM279.869 257.463L276.234 245.299C283.735 247.165 291.199 249.391 298.438 251.921L279.869 257.463ZM339.042 269.819C335.508 267.822 331.924 265.91 328.289 264.083C327.287 263.578 326.282 263.081 325.273 262.591C319.118 259.599 312.869 256.871 306.526 254.407L306.452 254.378L280.754 262.048L287.772 285.532L339.518 270.088L339.042 269.819ZM288.084 284.954L281.332 262.36L306.432 254.869C312.549 257.246 318.596 259.879 324.573 262.769C325.611 263.27 326.645 263.779 327.675 264.295C331.275 266.096 334.829 267.983 338.337 269.956L288.084 284.954ZM299.267 251.72C291.677 249.043 283.832 246.698 275.951 244.75L275.556 244.652L279.557 258.041L299.941 251.957L299.267 251.72ZM279.869 257.463L276.234 245.299C283.735 247.165 291.199 249.391 298.438 251.921L279.869 257.463ZM339.042 269.819C335.508 267.822 331.924 265.91 328.289 264.083C327.287 263.578 326.282 263.081 325.273 262.591C319.118 259.599 312.869 256.871 306.526 254.407L306.452 254.378L280.754 262.048L287.772 285.532L339.518 270.088L339.042 269.819ZM288.084 284.954L281.332 262.36L306.432 254.869C312.549 257.246 318.596 259.879 324.573 262.769C325.611 263.27 326.645 263.779 327.675 264.295C331.275 266.096 334.829 267.983 338.337 269.956L288.084 284.954Z" fill="#EEC374"/>
<path d="M305.178 253.817C306.863 259.455 300.402 275.062 300.402 275.062C300.402 275.062 286.435 265.552 284.75 259.914C283.941 257.207 284.242 254.29 285.585 251.804C286.929 249.318 289.205 247.467 291.914 246.658C294.623 245.85 297.542 246.15 300.03 247.493C302.517 248.835 304.369 251.11 305.178 253.817H305.178Z" fill="#876546"/>
<path d="M299.503 255.028C299.779 255.951 299.775 256.935 299.491 257.855C299.207 258.776 298.657 259.591 297.909 260.199C297.161 260.807 296.25 261.18 295.291 261.27C294.331 261.36 293.366 261.164 292.518 260.706C291.67 260.249 290.977 259.55 290.526 258.698C290.076 257.847 289.888 256.881 289.987 255.923C290.085 254.965 290.466 254.058 291.08 253.316C291.695 252.574 292.516 252.031 293.44 251.755C294.053 251.572 294.696 251.511 295.333 251.576C295.969 251.641 296.587 251.832 297.15 252.136C297.713 252.439 298.211 252.851 298.615 253.348C299.018 253.844 299.32 254.415 299.503 255.028Z" fill="white"/>
<path d="M301.784 282.548C303.371 282.548 304.657 281.262 304.657 279.676C304.657 278.09 303.371 276.805 301.784 276.805C300.197 276.805 298.91 278.09 298.91 279.676C298.91 281.262 300.197 282.548 301.784 282.548Z" fill="#876546"/>
<path d="M333.136 241.92L313.166 247.88C313.141 247.888 313.116 247.893 313.09 247.896L317.649 228.727C317.676 228.608 317.734 228.499 317.818 228.41C317.902 228.321 318.007 228.255 318.124 228.22C318.241 228.185 318.366 228.182 318.484 228.211C318.603 228.24 318.712 228.299 318.8 228.384L328.418 237.464L328.878 237.898L333.136 241.92Z" fill="white"/>
<path opacity="0.2" d="M333.135 241.919L326.316 243.953L328.212 238.096L328.348 237.674L328.416 237.463L328.877 237.897L333.135 241.919Z" fill="black"/>
<path d="M344.257 238.6L326.984 243.756L328.88 237.898L329.016 237.476L331.485 229.842C331.533 229.723 331.606 229.614 331.699 229.525C331.792 229.435 331.903 229.366 332.024 229.321C332.145 229.277 332.274 229.259 332.403 229.268C332.532 229.277 332.658 229.313 332.772 229.373C332.802 229.391 332.831 229.411 332.858 229.433L344.257 238.6Z" fill="white"/>
</g>
<defs>
<clipPath id="clip0_8_113">
<rect width="633" height="437" fill="white"/>
</clipPath>
</defs>
</svg>
